<svg width="19" height="18" viewBox="0 0 19 18" fill="none" xmlns="http://www.w3.org/2000/svg">
<path fill-rule="evenodd" clip-rule="evenodd" d="M13.6406 9.76921C13.6406 10.4065 14.1571 10.9231 14.7944 10.9231C15.4316 10.9231 15.9482 10.4065 15.9482 9.76921V9.00005C15.948 5.96157 13.8547 3.32363 10.8958 2.63309C7.93692 1.94255 4.89227 3.38142 3.5472 6.10595C2.20213 8.83048 2.91115 12.1226 5.25851 14.0518C7.45498 15.8571 10.5627 16.0328 12.9424 14.5027C13.4784 14.1581 14.1923 14.3132 14.5369 14.8493C14.8816 15.3853 14.7264 16.0992 14.1904 16.4438C10.9693 18.5149 6.7652 18.2772 3.79331 15.8347C0.617475 13.2245 -0.341793 8.77049 1.47801 5.08435C3.29781 1.39822 7.41705 -0.548472 11.4203 0.385785C15.4235 1.32004 18.2555 4.88901 18.2558 8.99998V9.76921C18.2558 11.681 16.7061 13.2307 14.7944 13.2307C13.7935 13.2307 12.8918 12.8059 12.2598 12.1268C11.5079 12.8126 10.5078 13.2307 9.4099 13.2307C7.07338 13.2307 5.17925 11.3366 5.17925 8.99998C5.17925 6.66339 7.07338 4.76921 9.4099 4.76921C11.7464 4.76921 13.6406 6.66339 13.6406 8.99998V9.76921ZM11.3343 8.99998C11.3343 7.93789 10.4733 7.0769 9.41117 7.0769C8.34909 7.0769 7.4881 7.93789 7.4881 8.99998C7.4881 10.0621 8.34909 10.9231 9.41117 10.9231C10.4733 10.9231 11.3343 10.0621 11.3343 8.99998Z" fill="#9F9F9F"/>
<path fill-rule="evenodd" clip-rule="evenodd" d="M13.6406 9.76921C13.6406 10.4065 14.1571 10.9231 14.7944 10.9231C15.4316 10.9231 15.9482 10.4065 15.9482 9.76921V9.00005C15.948 5.96157 13.8547 3.32363 10.8958 2.63309C7.93692 1.94255 4.89227 3.38142 3.5472 6.10595C2.20213 8.83048 2.91115 12.1226 5.25851 14.0518C7.45498 15.8571 10.5627 16.0328 12.9424 14.5027C13.4784 14.1581 14.1923 14.3132 14.5369 14.8493C14.8816 15.3853 14.7264 16.0992 14.1904 16.4438C10.9693 18.5149 6.7652 18.2772 3.79331 15.8347C0.617475 13.2245 -0.341793 8.77049 1.47801 5.08435C3.29781 1.39822 7.41705 -0.548472 11.4203 0.385785C15.4235 1.32004 18.2555 4.88901 18.2558 8.99998V9.76921C18.2558 11.681 16.7061 13.2307 14.7944 13.2307C13.7935 13.2307 12.8918 12.8059 12.2598 12.1268C11.5079 12.8126 10.5078 13.2307 9.4099 13.2307C7.07338 13.2307 5.17925 11.3366 5.17925 8.99998C5.17925 6.66339 7.07338 4.76921 9.4099 4.76921C11.7464 4.76921 13.6406 6.66339 13.6406 8.99998V9.76921ZM11.3343 8.99998C11.3343 7.93789 10.4733 7.0769 9.41117 7.0769C8.34909 7.0769 7.4881 7.93789 7.4881 8.99998C7.4881 10.0621 8.34909 10.9231 9.41117 10.9231C10.4733 10.9231 11.3343 10.0621 11.3343 8.99998Z" fill="#9F9F9F"/>
<mask id="mask0_98_8757" style="mask-type:luminance" maskUnits="userSpaceOnUse" x="0" y="0" width="19" height="18">
<path fill-rule="evenodd" clip-rule="evenodd" d="M13.6406 9.76921C13.6406 10.4065 14.1571 10.9231 14.7944 10.9231C15.4316 10.9231 15.9482 10.4065 15.9482 9.76921V9.00005C15.948 5.96157 13.8547 3.32363 10.8958 2.63309C7.93692 1.94255 4.89227 3.38142 3.5472 6.10595C2.20213 8.83048 2.91115 12.1226 5.25851 14.0518C7.45498 15.8571 10.5627 16.0328 12.9424 14.5027C13.4784 14.1581 14.1923 14.3132 14.5369 14.8493C14.8816 15.3853 14.7264 16.0992 14.1904 16.4438C10.9693 18.5149 6.7652 18.2772 3.79331 15.8347C0.617475 13.2245 -0.341793 8.77049 1.47801 5.08435C3.29781 1.39822 7.41705 -0.548472 11.4203 0.385785C15.4235 1.32004 18.2555 4.88901 18.2558 8.99998V9.76921C18.2558 11.681 16.7061 13.2307 14.7944 13.2307C13.7935 13.2307 12.8918 12.8059 12.2598 12.1268C11.5079 12.8126 10.5078 13.2307 9.4099 13.2307C7.07338 13.2307 5.17925 11.3366 5.17925 8.99998C5.17925 6.66339 7.07338 4.76921 9.4099 4.76921C11.7464 4.76921 13.6406 6.66339 13.6406 8.99998V9.76921ZM11.3343 8.99998C11.3343 7.93789 10.4733 7.0769 9.41117 7.0769C8.34909 7.0769 7.4881 7.93789 7.4881 8.99998C7.4881 10.0621 8.34909 10.9231 9.41117 10.9231C10.4733 10.9231 11.3343 10.0621 11.3343 8.99998Z" fill="white"/>
</mask>
<g mask="url(#mask0_98_8757)">
</g>
</svg>
