<svg width="24" height="16" viewBox="0 0 24 16" fill="none" xmlns="http://www.w3.org/2000/svg">
<path fill-rule="evenodd" clip-rule="evenodd" d="M5.15436 15.0425C7.81416 15.9815 11.0851 15.28 12.8554 12.8882C14.1475 11.2116 14.4417 8.97783 14.3015 6.89156C12.0231 6.86927 9.74435 6.87737 7.47059 6.88021C7.46596 7.73206 7.47059 8.58068 7.47329 9.43212C8.83677 9.47184 10.2014 9.45441 11.5661 9.48278C11.2221 10.7225 10.4365 11.875 9.24675 12.3228C6.94712 13.385 4.01555 11.9966 3.29173 9.46536C2.4189 7.04029 3.8484 4.11473 6.20825 3.41039C7.67094 2.87058 9.1788 3.47847 10.4307 4.27642C11.0638 3.65435 11.6579 2.9877 12.2416 2.31497C10.8179 1.06596 8.99042 0.29962 7.11157 0.467397C3.42453 0.513596 0.197643 4.08636 0.337775 7.95374C0.276009 11.0836 2.32973 14.0691 5.15436 15.0425Z" fill="white"/>
<path fill-rule="evenodd" clip-rule="evenodd" d="M19.3275 6.43805C18.66 6.44408 17.9967 6.44823 17.3334 6.45125V8.43767C17.9967 8.44069 18.6641 8.44333 19.3275 8.45087C19.3335 9.11402 19.3335 9.77716 19.3407 10.4445C20.001 10.4445 20.6643 10.4399 21.3276 10.4445C21.3306 9.77716 21.3336 9.11402 21.3408 8.44785C22.0041 8.44484 22.6704 8.44069 23.3334 8.43767V6.45125C22.6704 6.44823 22.0041 6.44521 21.3408 6.43805C21.3363 5.7749 21.3306 5.10911 21.3276 4.44597C20.6643 4.44446 20.004 4.44446 19.3437 4.44446C19.338 5.10911 19.3305 5.7749 19.3275 6.43805Z" fill="white"/>
<path fill-rule="evenodd" clip-rule="evenodd" d="M7.11182 0.467397C8.99073 0.29962 10.8183 1.06596 12.2421 2.31497C11.6583 2.9877 11.0642 3.65435 10.4311 4.27642C9.17758 3.47847 7.6712 2.86896 6.20691 3.41039C3.84698 4.11473 2.41743 7.04029 3.29184 9.46373C4.01414 11.9966 6.94736 13.385 9.24706 12.3212C10.4369 11.875 11.2209 10.7225 11.5665 9.48278C10.2018 9.45441 8.83708 9.47184 7.47355 9.43212C7.4693 8.58068 7.46621 7.73206 7.4693 6.88021C9.74468 6.87575 12.0235 6.86927 14.302 6.88994C14.4406 8.97783 14.148 11.2116 12.8543 12.8882C11.0854 15.28 7.81443 15.9815 5.15299 15.0425C2.3298 14.0691 0.276007 11.0836 0.337775 7.95374C0.197638 4.08636 3.42464 0.513596 7.11182 0.467397Z" fill="white"/>
<path fill-rule="evenodd" clip-rule="evenodd" d="M21.3276 4.44446C21.3306 5.10928 21.3363 5.77523 21.3408 6.43855C22.0041 6.44458 22.6704 6.44873 23.3334 6.45175V8.43867C22.6704 8.44169 22.0041 8.44433 21.3408 8.44886C21.3336 9.11519 21.3306 9.7785 21.3276 10.4445C20.6643 10.4414 19.9998 10.4445 19.3407 10.4445C19.3335 9.7785 19.3335 9.11519 19.3275 8.45188C18.6641 8.44433 17.9967 8.44169 17.3334 8.43867V6.45175C17.9967 6.44722 18.66 6.44458 19.3275 6.43855C19.3305 5.77523 19.3365 5.10928 19.3437 4.44446H21.3276Z" fill="white"/>
</svg>
