<svg width="18" height="20" viewBox="0 0 18 20" fill="none" xmlns="http://www.w3.org/2000/svg">
<path fill-rule="evenodd" clip-rule="evenodd" d="M16 16.0024C16 16.5524 15.55 17.0024 15 17.0024H14V13.0024H16V16.0024ZM4 17.0024H3C2.45 17.0024 2 16.5524 2 16.0024V13.0024H4V17.0024ZM0 9.00244V16.0024C0 17.6624 1.34 19.0024 3 19.0024H6V11.0024H2V9.00244C2 5.13244 5.13 2.00244 9 2.00244C12.87 2.00244 16 5.13244 16 9.00244V11.0024H12V19.0024H15C16.66 19.0024 18 17.6624 18 16.0024V9.00244C18 4.03244 13.97 0.00244141 9 0.00244141C4.03 0.00244141 0 4.03244 0 9.00244Z" fill="#EEEEEE"/>
</svg>
