<svg width="35" height="31" viewBox="0 0 35 31" fill="none" xmlns="http://www.w3.org/2000/svg">
<path d="M0 15.5V9.6875C0 8.65979 0.388157 7.67416 1.07908 6.94746C1.77 6.22076 2.7071 5.8125 3.68421 5.8125C4.66132 5.8125 5.59842 6.22076 6.28934 6.94746C6.98026 7.67416 7.36842 8.65979 7.36842 9.6875V19.375C7.36842 19.8889 7.5625 20.3817 7.90796 20.745C8.25342 21.1084 8.72197 21.3125 9.21053 21.3125C9.69908 21.3125 10.1676 21.1084 10.5131 20.745C10.8586 20.3817 11.0526 19.8889 11.0526 19.375V3.875C11.0526 2.84729 11.4408 1.86166 12.1317 1.13496C12.8226 0.408258 13.7597 0 14.7368 0C15.714 0 16.651 0.408258 17.342 1.13496C18.0329 1.86166 18.4211 2.84729 18.4211 3.875V27.125C18.4211 27.6389 18.6151 28.1317 18.9606 28.495C19.3061 28.8584 19.7746 29.0625 20.2632 29.0625C20.7517 29.0625 21.2203 28.8584 21.5657 28.495C21.9112 28.1317 22.1053 27.6389 22.1053 27.125V23.25C22.1053 21.3125 23.9474 21.3125 23.9474 23.25V27.125C23.9474 28.1527 23.5592 29.1383 22.8683 29.865C22.1774 30.5917 21.2403 31 20.2632 31C19.286 31 18.349 30.5917 17.658 29.865C16.9671 29.1383 16.5789 28.1527 16.5789 27.125V3.875C16.5789 3.36114 16.3849 2.86833 16.0394 2.50498C15.6939 2.14163 15.2254 1.9375 14.7368 1.9375C14.2483 1.9375 13.7797 2.14163 13.4343 2.50498C13.0888 2.86833 12.8947 3.36114 12.8947 3.875V19.375C12.8947 20.4027 12.5066 21.3883 11.8157 22.115C11.1247 22.8417 10.1876 23.25 9.21053 23.25C8.23341 23.25 7.29632 22.8417 6.6054 22.115C5.91447 21.3883 5.52632 20.4027 5.52632 19.375V9.6875C5.52632 9.17364 5.33224 8.68083 4.98678 8.31748C4.64131 7.95413 4.17277 7.75 3.68421 7.75C3.19565 7.75 2.72711 7.95413 2.38165 8.31748C2.03618 8.68083 1.84211 9.17364 1.84211 9.6875V15.5C1.84211 17.4375 0 17.4375 0 15.5ZM23.9474 15.5C23.9474 17.4375 22.1053 17.4375 22.1053 15.5V9.6875C22.1053 8.65979 22.4934 7.67416 23.1843 6.94746C23.8753 6.22076 24.8124 5.8125 25.7895 5.8125C26.7666 5.8125 27.7037 6.22076 28.3946 6.94746C29.0855 7.67416 29.4737 8.65979 29.4737 9.6875V19.375C29.4737 19.8889 29.6678 20.3817 30.0132 20.745C30.3587 21.1084 30.8272 21.3125 31.3158 21.3125C31.8043 21.3125 32.2729 21.1084 32.6184 20.745C32.9638 20.3817 33.1579 19.8889 33.1579 19.375V11.625C33.1579 9.6875 35 9.6875 35 11.625V19.375C35 20.4027 34.6118 21.3883 33.9209 22.115C33.23 22.8417 32.2929 23.25 31.3158 23.25C30.3387 23.25 29.4016 22.8417 28.7107 22.115C28.0197 21.3883 27.6316 20.4027 27.6316 19.375V9.6875C27.6316 9.17364 27.4375 8.68083 27.092 8.31748C26.7466 7.95413 26.278 7.75 25.7895 7.75C25.3009 7.75 24.8324 7.95413 24.4869 8.31748C24.1414 8.68083 23.9474 9.17364 23.9474 9.6875V15.5Z" fill="#CBFB5E"/>
</svg>
