<?xml version="1.0" encoding="UTF-8" standalone="no"?>
<svg
   width="16.2472"
   height="17.9582"
   viewBox="0 0 16.2472 17.9582"
   fill="none"
   version="1.1"
   id="svg11"
   sodipodi:docname="8bf5c42cc989bc2b3b6564e7ccdeef98.svg"
   xmlns:inkscape="http://www.inkscape.org/namespaces/inkscape"
   xmlns:sodipodi="http://sodipodi.sourceforge.net/DTD/sodipodi-0.dtd"
   xmlns="http://www.w3.org/2000/svg"
   xmlns:svg="http://www.w3.org/2000/svg">
  <defs
     id="defs15" />
  <sodipodi:namedview
     id="namedview13"
     pagecolor="#ffffff"
     bordercolor="#666666"
     borderopacity="1.0"
     inkscape:pageshadow="2"
     inkscape:pageopacity="0.0"
     inkscape:pagecheckerboard="0" />
  <path
     fill-rule="evenodd"
     clip-rule="evenodd"
     d="M 5.41491,7.02667 H 10.8307 V 5.07535 c 0,-1.50933 -1.2124,-2.73288 -2.70792,-2.73288 -1.49552,0 -2.70787,1.22355 -2.70787,2.73288 z m 7.73679,0 h 0.3877 c 1.4955,0 2.7078,1.22356 2.7078,2.73288 v 5.46575 c 0,1.5093 -1.2123,2.7329 -2.7078,2.7329 H 2.70787 C 1.21236,17.9582 0,16.7346 0,15.2253 V 9.75955 C 0,8.25023 1.21236,7.02667 2.70787,7.02667 h 0.386 V 5.07535 C 3.09387,2.27231 5.34539,0 8.12278,0 10.9002,0 13.1517,2.27231 13.1517,5.07535 Z"
     fill="#9f9f9f"
     id="path2" />
  <path
     fill-rule="evenodd"
     clip-rule="evenodd"
     d="M 5.41491,7.02667 H 10.8307 V 5.07535 c 0,-1.50933 -1.2124,-2.73288 -2.70792,-2.73288 -1.49552,0 -2.70787,1.22355 -2.70787,2.73288 z m 7.73679,0 h 0.3877 c 1.4955,0 2.7078,1.22356 2.7078,2.73288 v 5.46575 c 0,1.5093 -1.2123,2.7329 -2.7078,2.7329 H 2.70787 C 1.21236,17.9582 0,16.7346 0,15.2253 V 9.75955 C 0,8.25023 1.21236,7.02667 2.70787,7.02667 h 0.386 V 5.07535 C 3.09387,2.27231 5.34539,0 8.12278,0 10.9002,0 13.1517,2.27231 13.1517,5.07535 Z"
     fill="#9f9f9f"
     id="path4" />
  <mask
     id="mask0_98_8892"
     maskUnits="userSpaceOnUse"
     x="0"
     y="0"
     width="17"
     height="18">
    <path
       fill-rule="evenodd"
       clip-rule="evenodd"
       d="M 5.41491,7.02667 H 10.8307 V 5.07535 c 0,-1.50933 -1.2124,-2.73288 -2.70792,-2.73288 -1.49552,0 -2.70787,1.22355 -2.70787,2.73288 z m 7.73679,0 h 0.3877 c 1.4955,0 2.7078,1.22356 2.7078,2.73288 v 5.46575 c 0,1.5093 -1.2123,2.7329 -2.7078,2.7329 H 2.70787 C 1.21236,17.9582 0,16.7346 0,15.2253 V 9.75955 C 0,8.25023 1.21236,7.02667 2.70787,7.02667 h 0.386 V 5.07535 C 3.09387,2.27231 5.34539,0 8.12278,0 10.9002,0 13.1517,2.27231 13.1517,5.07535 Z"
       fill="#ffffff"
       id="path6" />
  </mask>
  <g
     mask="url(#mask0_98_8892)"
     id="g9" />
</svg>
