<svg width="24" height="24" viewBox="0 0 24 24" fill="none" xmlns="http://www.w3.org/2000/svg">
<path fill-rule="evenodd" clip-rule="evenodd" d="M12 1L8 5L12 9V6C15.31 6 18 8.69 18 12C18 13.01 17.75 13.97 17.3 14.8L18.76 16.26C19.54 15.03 20 13.57 20 12C20 7.58 16.42 4 12 4V1ZM6 12.0002C6 10.9902 6.25 10.0302 6.7 9.20023L5.24 7.74023C4.46 8.97023 4 10.4302 4 12.0002C4 16.4202 7.58 20.0002 12 20.0002V23.0002L16 19.0002L12 15.0002V18.0002C8.69 18.0002 6 15.3102 6 12.0002Z" fill="#EEEEEE"/>
</svg>
