<svg width="13" height="19" viewBox="0 0 13 19" fill="none" xmlns="http://www.w3.org/2000/svg">
<path fill-rule="evenodd" clip-rule="evenodd" d="M10 0C11.2745 0 12.3077 1.12712 12.3077 2.51748V15.9441C12.3077 17.3344 11.2745 18.4615 10 18.4615H2.30769C1.03319 18.4615 0 17.3344 0 15.9441V2.51748C0 1.12712 1.03319 0 2.30769 0H10ZM5.38464 15.3846C5.38464 14.9598 5.72904 14.6154 6.15387 14.6154C6.57871 14.6154 6.92311 14.9598 6.92311 15.3846C6.92311 15.8094 6.57871 16.1538 6.15387 16.1538C5.72904 16.1538 5.38464 15.8094 5.38464 15.3846ZM3.30768 2.30768C2.75539 2.30768 2.30768 2.75539 2.30768 3.30768V12.0769C2.30768 12.6292 2.75539 13.0769 3.30768 13.0769H8.99999C9.55227 13.0769 9.99999 12.6292 9.99999 12.0769V3.30768C9.99999 2.75539 9.55227 2.30768 8.99999 2.30768H3.30768Z" fill="#9F9F9F"/>
</svg>
