<svg width="17" height="17" viewBox="0 0 17 17" fill="none" xmlns="http://www.w3.org/2000/svg">
<path fill-rule="evenodd" clip-rule="evenodd" d="M5.76928 11.5384H11.1539C11.9462 11.5384 12.6267 12.0176 12.9212 12.702C13.9711 11.5983 14.6154 10.1051 14.6154 8.46152C14.6154 5.06285 11.8603 2.30768 8.46159 2.30768C5.06291 2.30768 2.30774 5.06285 2.30774 8.46152C2.30774 10.1051 2.9521 11.5983 4.00199 12.702C4.2965 12.0176 4.97693 11.5384 5.76928 11.5384ZM0 8.46154C0 3.78836 3.78836 0 8.46154 0C13.1347 0 16.9231 3.78836 16.9231 8.46154C16.9231 13.1347 13.1347 16.9231 8.46154 16.9231C3.78836 16.9231 0 13.1347 0 8.46154ZM5.76929 7.69231C5.76929 6.20539 6.97467 5 8.46159 5C9.94851 5 11.1539 6.20539 11.1539 7.69231C11.1539 9.17923 9.94851 10.3846 8.46159 10.3846C6.97467 10.3846 5.76929 9.17923 5.76929 7.69231Z" fill="#9F9F9F"/>
<path fill-rule="evenodd" clip-rule="evenodd" d="M5.76928 11.5384H11.1539C11.9462 11.5384 12.6267 12.0176 12.9212 12.702C13.9711 11.5983 14.6154 10.1051 14.6154 8.46152C14.6154 5.06285 11.8603 2.30768 8.46159 2.30768C5.06291 2.30768 2.30774 5.06285 2.30774 8.46152C2.30774 10.1051 2.9521 11.5983 4.00199 12.702C4.2965 12.0176 4.97693 11.5384 5.76928 11.5384ZM0 8.46154C0 3.78836 3.78836 0 8.46154 0C13.1347 0 16.9231 3.78836 16.9231 8.46154C16.9231 13.1347 13.1347 16.9231 8.46154 16.9231C3.78836 16.9231 0 13.1347 0 8.46154ZM5.76929 7.69231C5.76929 6.20539 6.97467 5 8.46159 5C9.94851 5 11.1539 6.20539 11.1539 7.69231C11.1539 9.17923 9.94851 10.3846 8.46159 10.3846C6.97467 10.3846 5.76929 9.17923 5.76929 7.69231Z" fill="#9F9F9F"/>
<mask id="mask0_98_8849" style="mask-type:luminance" maskUnits="userSpaceOnUse" x="0" y="0" width="17" height="17">
<path fill-rule="evenodd" clip-rule="evenodd" d="M5.76928 11.5384H11.1539C11.9462 11.5384 12.6267 12.0176 12.9212 12.702C13.9711 11.5983 14.6154 10.1051 14.6154 8.46152C14.6154 5.06285 11.8603 2.30768 8.46159 2.30768C5.06291 2.30768 2.30774 5.06285 2.30774 8.46152C2.30774 10.1051 2.9521 11.5983 4.00199 12.702C4.2965 12.0176 4.97693 11.5384 5.76928 11.5384ZM0 8.46154C0 3.78836 3.78836 0 8.46154 0C13.1347 0 16.9231 3.78836 16.9231 8.46154C16.9231 13.1347 13.1347 16.9231 8.46154 16.9231C3.78836 16.9231 0 13.1347 0 8.46154ZM5.76929 7.69231C5.76929 6.20539 6.97467 5 8.46159 5C9.94851 5 11.1539 6.20539 11.1539 7.69231C11.1539 9.17923 9.94851 10.3846 8.46159 10.3846C6.97467 10.3846 5.76929 9.17923 5.76929 7.69231Z" fill="white"/>
</mask>
<g mask="url(#mask0_98_8849)">
</g>
</svg>
