<svg width="23" height="23" viewBox="0 0 23 23" fill="none" xmlns="http://www.w3.org/2000/svg">
<path fill-rule="evenodd" clip-rule="evenodd" d="M21.5672 7.89238V19.2726C21.5672 20.3158 20.7517 21.1693 19.7347 21.1693H5.0749C4.05788 21.1693 3.24243 20.3158 3.24243 19.2726V7.89238C3.24243 7.10525 3.70971 6.40346 4.37856 6.13793L15.9598 1.25391L16.5828 2.82817L9.01472 5.99567H19.7347C20.7517 5.99567 21.5672 6.83971 21.5672 7.89238ZM5.07495 7.8924V10.7366H16.0698V8.84048H17.9023V10.7366H19.7347V7.8924H5.07495ZM19.7347 19.2726V12.6341H5.07495V19.2726H19.7347ZM6.44922 15.9344C6.44922 14.625 7.47475 13.5635 8.73981 13.5635C10.0049 13.5635 11.0304 14.625 11.0304 15.9344C11.0304 17.2438 10.0049 18.3052 8.73981 18.3052C7.47475 18.3052 6.44922 17.2438 6.44922 15.9344Z" fill="#71737B"/>
</svg>
