<svg width="20" height="20" viewBox="0 0 20 20" fill="none" xmlns="http://www.w3.org/2000/svg">
<path fill-rule="evenodd" clip-rule="evenodd" d="M12.2583 11.6667L12.025 11.4417C12.8417 10.4917 13.3333 9.25833 13.3333 7.91667C13.3333 4.925 10.9083 2.5 7.91667 2.5C4.925 2.5 2.5 4.925 2.5 7.91667C2.5 10.9083 4.925 13.3333 7.91667 13.3333C9.25833 13.3333 10.4917 12.8417 11.4417 12.025L11.6667 12.2583V12.9167L15.8333 17.075L17.075 15.8333L12.9167 11.6667H12.2583ZM4.16669 7.91668C4.16669 5.84169 5.84169 4.16669 7.91669 4.16669C9.99169 4.16669 11.6667 5.84169 11.6667 7.91668C11.6667 9.99168 9.99169 11.6667 7.91669 11.6667C5.84169 11.6667 4.16669 9.99168 4.16669 7.91668Z" fill="#EEEEEE"/>
</svg>
