<svg width="20" height="21" viewBox="0 0 20 21" fill="none" xmlns="http://www.w3.org/2000/svg">
<path fill-rule="evenodd" clip-rule="evenodd" d="M17.5001 10.0024C17.5001 9.66244 17.4701 9.34244 17.4301 9.02244L19.5401 7.37244C19.7301 7.22244 19.7801 6.95244 19.6601 6.73244L17.6601 3.27244C17.5701 3.11244 17.4001 3.02244 17.2201 3.02244C17.1601 3.02244 17.1001 3.03244 17.0501 3.05244L14.5601 4.05244C14.0401 3.65244 13.4801 3.32244 12.8701 3.07244L12.4901 0.422441C12.4601 0.182441 12.2501 0.00244141 12.0001 0.00244141H8.00008C7.75008 0.00244141 7.54008 0.182441 7.51008 0.422441L7.13008 3.07244C6.52008 3.32244 5.96008 3.66244 5.44008 4.05244L2.95008 3.05244C2.89008 3.03244 2.83008 3.02244 2.77008 3.02244C2.60008 3.02244 2.43008 3.11244 2.34008 3.27244L0.340084 6.73244C0.210084 6.95244 0.270084 7.22244 0.460084 7.37244L2.57008 9.02244C2.53008 9.34244 2.50008 9.67244 2.50008 10.0024C2.50008 10.3324 2.53008 10.6624 2.57008 10.9824L0.460084 12.6324C0.270084 12.7824 0.220084 13.0524 0.340084 13.2724L2.34008 16.7324C2.43008 16.8924 2.60008 16.9824 2.78008 16.9824C2.84008 16.9824 2.90008 16.9724 2.95008 16.9524L5.44008 15.9524C5.96008 16.3524 6.52008 16.6824 7.13008 16.9324L7.51008 19.5824C7.54008 19.8224 7.75008 20.0024 8.00008 20.0024H12.0001C12.2501 20.0024 12.4601 19.8224 12.4901 19.5824L12.8701 16.9324C13.4801 16.6824 14.0401 16.3424 14.5601 15.9524L17.0501 16.9524C17.1101 16.9724 17.1701 16.9824 17.2301 16.9824C17.4001 16.9824 17.5701 16.8924 17.6601 16.7324L19.6601 13.2724C19.7801 13.0524 19.7301 12.7824 19.5401 12.6324L17.4301 10.9824C17.4701 10.6624 17.5001 10.3424 17.5001 10.0024ZM15.5001 10.0024C15.5001 10.2124 15.4801 10.4324 15.4501 10.7324L15.3101 11.8624L16.2001 12.5624L17.2801 13.4024L16.5801 14.6124L15.3101 14.1024L14.2701 13.6824L13.3701 14.3624C12.9401 14.6824 12.5301 14.9224 12.1201 15.0924L11.0601 15.5224L10.9001 16.6524L10.7001 18.0024H9.30009L9.11009 16.6524L8.95009 15.5224L7.89009 15.0924C7.46009 14.9124 7.06009 14.6824 6.66009 14.3824L5.75009 13.6824L4.69009 14.1124L3.42009 14.6224L2.72009 13.4124L3.80009 12.5724L4.69009 11.8724L4.55009 10.7424C4.52009 10.4324 4.50009 10.2024 4.50009 10.0024C4.50009 9.80244 4.52009 9.57244 4.55009 9.27244L4.69009 8.14244L3.80009 7.44244L2.72009 6.60244L3.42009 5.39244L4.69009 5.90244L5.73009 6.32244L6.63009 5.64244C7.06009 5.32244 7.47009 5.08244 7.88009 4.91244L8.94009 4.48244L9.10009 3.35244L9.30009 2.00244H10.6901L10.8801 3.35244L11.0401 4.48244L12.1001 4.91244C12.5301 5.09244 12.9301 5.32244 13.3301 5.62244L14.2401 6.32244L15.3001 5.89244L16.5701 5.38244L17.2701 6.59244L16.2001 7.44244L15.3101 8.14244L15.4501 9.27244C15.4901 9.58244 15.5001 9.79244 15.5001 10.0024ZM6.00006 10.0024C6.00006 12.2124 7.79006 14.0024 10.0001 14.0024C12.2101 14.0024 14.0001 12.2124 14.0001 10.0024C14.0001 7.79244 12.2101 6.00244 10.0001 6.00244C7.79006 6.00244 6.00006 7.79244 6.00006 10.0024ZM8.00006 10.0024C8.00006 8.90244 8.90006 8.00244 10.0001 8.00244C11.1001 8.00244 12.0001 8.90244 12.0001 10.0024C12.0001 11.1024 11.1001 12.0024 10.0001 12.0024C8.90006 12.0024 8.00006 11.1024 8.00006 10.0024Z" fill="#EEEEEE"/>
</svg>
