<svg width="107" height="16" viewBox="0 0 107 16" fill="none" xmlns="http://www.w3.org/2000/svg">
<path d="M8.67188 11.2793C8.67188 11.0254 8.63281 10.7975 8.55469 10.5957C8.48307 10.3874 8.34635 10.1986 8.14453 10.0293C7.94271 9.85352 7.65951 9.68099 7.29492 9.51172C6.93034 9.34245 6.45833 9.16667 5.87891 8.98438C5.23438 8.77604 4.6224 8.54167 4.04297 8.28125C3.47005 8.02083 2.96224 7.7181 2.51953 7.37305C2.08333 7.02148 1.73828 6.61458 1.48438 6.15234C1.23698 5.6901 1.11328 5.15299 1.11328 4.54102C1.11328 3.94857 1.24349 3.41146 1.50391 2.92969C1.76432 2.44141 2.12891 2.02474 2.59766 1.67969C3.06641 1.32812 3.61979 1.05794 4.25781 0.869141C4.90234 0.680339 5.60872 0.585938 6.37695 0.585938C7.42513 0.585938 8.33984 0.77474 9.12109 1.15234C9.90234 1.52995 10.5078 2.04753 10.9375 2.70508C11.3737 3.36263 11.5918 4.11458 11.5918 4.96094H8.68164C8.68164 4.54427 8.59375 4.17969 8.41797 3.86719C8.2487 3.54818 7.98828 3.29753 7.63672 3.11523C7.29167 2.93294 6.85547 2.8418 6.32812 2.8418C5.82031 2.8418 5.39714 2.91992 5.05859 3.07617C4.72005 3.22591 4.46615 3.43099 4.29688 3.69141C4.1276 3.94531 4.04297 4.23177 4.04297 4.55078C4.04297 4.79167 4.10156 5.00977 4.21875 5.20508C4.34245 5.40039 4.52474 5.58268 4.76562 5.75195C5.00651 5.92122 5.30273 6.08073 5.6543 6.23047C6.00586 6.38021 6.41276 6.52669 6.875 6.66992C7.64974 6.9043 8.33008 7.16797 8.91602 7.46094C9.50846 7.75391 10.0033 8.08268 10.4004 8.44727C10.7975 8.81185 11.097 9.22526 11.2988 9.6875C11.5007 10.1497 11.6016 10.6738 11.6016 11.2598C11.6016 11.8783 11.4811 12.4316 11.2402 12.9199C10.9993 13.4082 10.651 13.8216 10.1953 14.1602C9.73958 14.4987 9.19596 14.7559 8.56445 14.9316C7.93294 15.1074 7.22656 15.1953 6.44531 15.1953C5.74219 15.1953 5.04883 15.1042 4.36523 14.9219C3.68164 14.7331 3.0599 14.4499 2.5 14.0723C1.94661 13.6947 1.50391 13.2129 1.17188 12.627C0.839844 12.041 0.673828 11.3477 0.673828 10.5469H3.61328C3.61328 10.9896 3.68164 11.3639 3.81836 11.6699C3.95508 11.9759 4.14714 12.2233 4.39453 12.4121C4.64844 12.6009 4.94792 12.7376 5.29297 12.8223C5.64453 12.9069 6.02865 12.9492 6.44531 12.9492C6.95312 12.9492 7.36979 12.8776 7.69531 12.7344C8.02734 12.5911 8.27148 12.3926 8.42773 12.1387C8.59049 11.8848 8.67188 11.5983 8.67188 11.2793ZM12.9688 9.82422V9.61914C12.9688 8.8444 13.0794 8.13151 13.3008 7.48047C13.5221 6.82292 13.8444 6.25326 14.2676 5.77148C14.6908 5.28971 15.2116 4.91536 15.8301 4.64844C16.4486 4.375 17.1582 4.23828 17.959 4.23828C18.7598 4.23828 19.4727 4.375 20.0977 4.64844C20.7227 4.91536 21.2467 5.28971 21.6699 5.77148C22.0996 6.25326 22.4251 6.82292 22.6465 7.48047C22.8678 8.13151 22.9785 8.8444 22.9785 9.61914V9.82422C22.9785 10.5924 22.8678 11.3053 22.6465 11.9629C22.4251 12.6139 22.0996 13.1836 21.6699 13.6719C21.2467 14.1536 20.7259 14.528 20.1074 14.7949C19.4889 15.0618 18.7793 15.1953 17.9785 15.1953C17.1777 15.1953 16.4648 15.0618 15.8398 14.7949C15.2214 14.528 14.6973 14.1536 14.2676 13.6719C13.8444 13.1836 13.5221 12.6139 13.3008 11.9629C13.0794 11.3053 12.9688 10.5924 12.9688 9.82422ZM15.7812 9.61914V9.82422C15.7812 10.2669 15.8203 10.6803 15.8984 11.0645C15.9766 11.4486 16.1003 11.7871 16.2695 12.0801C16.4453 12.3665 16.6732 12.5911 16.9531 12.7539C17.2331 12.9167 17.5749 12.998 17.9785 12.998C18.3691 12.998 18.7044 12.9167 18.9844 12.7539C19.2643 12.5911 19.4889 12.3665 19.6582 12.0801C19.8275 11.7871 19.9512 11.4486 20.0293 11.0645C20.1139 10.6803 20.1562 10.2669 20.1562 9.82422V9.61914C20.1562 9.18945 20.1139 8.78581 20.0293 8.4082C19.9512 8.02409 19.8242 7.68555 19.6484 7.39258C19.4792 7.0931 19.2546 6.85872 18.9746 6.68945C18.6947 6.52018 18.3561 6.43555 17.959 6.43555C17.5618 6.43555 17.2233 6.52018 16.9434 6.68945C16.6699 6.85872 16.4453 7.0931 16.2695 7.39258C16.1003 7.68555 15.9766 8.02409 15.8984 8.4082C15.8203 8.78581 15.7812 9.18945 15.7812 9.61914ZM30.957 12.4707V4.43359H33.7695V15H31.123L30.957 12.4707ZM31.2695 10.3027L32.0996 10.2832C32.0996 10.9863 32.0182 11.6406 31.8555 12.2461C31.6927 12.8451 31.4486 13.3659 31.123 13.8086C30.7975 14.2448 30.3874 14.5866 29.8926 14.834C29.3978 15.0749 28.8151 15.1953 28.1445 15.1953C27.6302 15.1953 27.1549 15.1237 26.7188 14.9805C26.2891 14.8307 25.918 14.5996 25.6055 14.2871C25.2995 13.9681 25.0586 13.5612 24.8828 13.0664C24.7135 12.5651 24.6289 11.9629 24.6289 11.2598V4.43359H27.4414V11.2793C27.4414 11.5918 27.4772 11.8555 27.5488 12.0703C27.627 12.2852 27.7344 12.4609 27.8711 12.5977C28.0078 12.7344 28.1673 12.832 28.3496 12.8906C28.5384 12.9492 28.7467 12.9785 28.9746 12.9785C29.554 12.9785 30.0098 12.8613 30.3418 12.627C30.6803 12.3926 30.918 12.0736 31.0547 11.6699C31.1979 11.2598 31.2695 10.804 31.2695 10.3027ZM38.6719 6.68945V15H35.8594V4.43359H38.4961L38.6719 6.68945ZM38.2617 9.3457H37.5C37.5 8.56445 37.6009 7.86133 37.8027 7.23633C38.0046 6.60482 38.2878 6.06771 38.6523 5.625C39.0169 5.17578 39.4499 4.83398 39.9512 4.59961C40.459 4.35872 41.0254 4.23828 41.6504 4.23828C42.1452 4.23828 42.5977 4.3099 43.0078 4.45312C43.418 4.59635 43.7695 4.82422 44.0625 5.13672C44.362 5.44922 44.5898 5.86263 44.7461 6.37695C44.9089 6.89128 44.9902 7.51953 44.9902 8.26172V15H42.1582V8.25195C42.1582 7.7832 42.0931 7.41862 41.9629 7.1582C41.8327 6.89779 41.6406 6.71549 41.3867 6.61133C41.1393 6.50065 40.8333 6.44531 40.4688 6.44531C40.0911 6.44531 39.7624 6.52018 39.4824 6.66992C39.209 6.81966 38.9811 7.02799 38.7988 7.29492C38.623 7.55534 38.4896 7.86133 38.3984 8.21289C38.3073 8.56445 38.2617 8.94206 38.2617 9.3457ZM53.3691 12.6953V0H56.2012V15H53.6523L53.3691 12.6953ZM46.6895 9.84375V9.63867C46.6895 8.83138 46.7806 8.09896 46.9629 7.44141C47.1452 6.77734 47.4121 6.20768 47.7637 5.73242C48.1152 5.25716 48.5482 4.88932 49.0625 4.62891C49.5768 4.36849 50.1628 4.23828 50.8203 4.23828C51.4388 4.23828 51.9792 4.36849 52.4414 4.62891C52.9102 4.88932 53.3073 5.26042 53.6328 5.74219C53.9648 6.21745 54.2318 6.7806 54.4336 7.43164C54.6354 8.07617 54.7819 8.78255 54.873 9.55078V10C54.7819 10.7357 54.6354 11.4193 54.4336 12.0508C54.2318 12.6823 53.9648 13.2357 53.6328 13.7109C53.3073 14.1797 52.9102 14.5443 52.4414 14.8047C51.9727 15.0651 51.4258 15.1953 50.8008 15.1953C50.1432 15.1953 49.5573 15.0618 49.043 14.7949C48.5352 14.528 48.1055 14.1536 47.7539 13.6719C47.4089 13.1901 47.1452 12.6237 46.9629 11.9727C46.7806 11.3216 46.6895 10.612 46.6895 9.84375ZM49.502 9.63867V9.84375C49.502 10.2799 49.5345 10.6868 49.5996 11.0645C49.6712 11.4421 49.7852 11.7773 49.9414 12.0703C50.1042 12.3568 50.3125 12.5814 50.5664 12.7441C50.8268 12.9004 51.1426 12.9785 51.5137 12.9785C51.9954 12.9785 52.3926 12.8711 52.7051 12.6562C53.0176 12.4349 53.2552 12.1322 53.418 11.748C53.5872 11.3639 53.6849 10.9212 53.7109 10.4199V9.14062C53.6914 8.73047 53.6328 8.36263 53.5352 8.03711C53.444 7.70508 53.3073 7.42188 53.125 7.1875C52.9492 6.95312 52.7279 6.77083 52.4609 6.64062C52.2005 6.51042 51.8913 6.44531 51.5332 6.44531C51.1686 6.44531 50.8561 6.52995 50.5957 6.69922C50.3353 6.86198 50.1237 7.08659 49.9609 7.37305C49.8047 7.65951 49.6875 7.99805 49.6094 8.38867C49.5378 8.77279 49.502 9.18945 49.502 9.63867ZM65.9766 11.2793C65.9766 11.0254 65.9375 10.7975 65.8594 10.5957C65.7878 10.3874 65.651 10.1986 65.4492 10.0293C65.2474 9.85352 64.9642 9.68099 64.5996 9.51172C64.235 9.34245 63.763 9.16667 63.1836 8.98438C62.5391 8.77604 61.9271 8.54167 61.3477 8.28125C60.7747 8.02083 60.2669 7.7181 59.8242 7.37305C59.388 7.02148 59.043 6.61458 58.7891 6.15234C58.5417 5.6901 58.418 5.15299 58.418 4.54102C58.418 3.94857 58.5482 3.41146 58.8086 2.92969C59.069 2.44141 59.4336 2.02474 59.9023 1.67969C60.3711 1.32812 60.9245 1.05794 61.5625 0.869141C62.207 0.680339 62.9134 0.585938 63.6816 0.585938C64.7298 0.585938 65.6445 0.77474 66.4258 1.15234C67.207 1.52995 67.8125 2.04753 68.2422 2.70508C68.6784 3.36263 68.8965 4.11458 68.8965 4.96094H65.9863C65.9863 4.54427 65.8984 4.17969 65.7227 3.86719C65.5534 3.54818 65.293 3.29753 64.9414 3.11523C64.5964 2.93294 64.1602 2.8418 63.6328 2.8418C63.125 2.8418 62.7018 2.91992 62.3633 3.07617C62.0247 3.22591 61.7708 3.43099 61.6016 3.69141C61.4323 3.94531 61.3477 4.23177 61.3477 4.55078C61.3477 4.79167 61.4062 5.00977 61.5234 5.20508C61.6471 5.40039 61.8294 5.58268 62.0703 5.75195C62.3112 5.92122 62.6074 6.08073 62.959 6.23047C63.3105 6.38021 63.7174 6.52669 64.1797 6.66992C64.9544 6.9043 65.6348 7.16797 66.2207 7.46094C66.8132 7.75391 67.3079 8.08268 67.7051 8.44727C68.1022 8.81185 68.4017 9.22526 68.6035 9.6875C68.8053 10.1497 68.9062 10.6738 68.9062 11.2598C68.9062 11.8783 68.7858 12.4316 68.5449 12.9199C68.304 13.4082 67.9557 13.8216 67.5 14.1602C67.0443 14.4987 66.5007 14.7559 65.8691 14.9316C65.2376 15.1074 64.5312 15.1953 63.75 15.1953C63.0469 15.1953 62.3535 15.1042 61.6699 14.9219C60.9863 14.7331 60.3646 14.4499 59.8047 14.0723C59.2513 13.6947 58.8086 13.2129 58.4766 12.627C58.1445 12.041 57.9785 11.3477 57.9785 10.5469H60.918C60.918 10.9896 60.9863 11.3639 61.123 11.6699C61.2598 11.9759 61.4518 12.2233 61.6992 12.4121C61.9531 12.6009 62.2526 12.7376 62.5977 12.8223C62.9492 12.9069 63.3333 12.9492 63.75 12.9492C64.2578 12.9492 64.6745 12.8776 65 12.7344C65.332 12.5911 65.5762 12.3926 65.7324 12.1387C65.8952 11.8848 65.9766 11.5983 65.9766 11.2793ZM75.0879 12.998C75.4329 12.998 75.7389 12.9329 76.0059 12.8027C76.2728 12.666 76.4811 12.4772 76.6309 12.2363C76.7871 11.9889 76.8685 11.6992 76.875 11.3672H79.5215C79.515 12.1094 79.3164 12.7702 78.9258 13.3496C78.5352 13.9225 78.0111 14.375 77.3535 14.707C76.696 15.0326 75.9603 15.1953 75.1465 15.1953C74.3262 15.1953 73.61 15.0586 72.998 14.7852C72.3926 14.5117 71.888 14.1341 71.4844 13.6523C71.0807 13.1641 70.778 12.5977 70.5762 11.9531C70.3743 11.3021 70.2734 10.6055 70.2734 9.86328V9.58008C70.2734 8.83138 70.3743 8.13477 70.5762 7.49023C70.778 6.83919 71.0807 6.27279 71.4844 5.79102C71.888 5.30273 72.3926 4.92188 72.998 4.64844C73.6035 4.375 74.3132 4.23828 75.127 4.23828C75.9928 4.23828 76.7513 4.4043 77.4023 4.73633C78.0599 5.06836 78.5742 5.54362 78.9453 6.16211C79.3229 6.77409 79.515 7.5 79.5215 8.33984H76.875C76.8685 7.98828 76.7936 7.66927 76.6504 7.38281C76.5137 7.09635 76.3118 6.86849 76.0449 6.69922C75.7845 6.52344 75.4622 6.43555 75.0781 6.43555C74.668 6.43555 74.3327 6.52344 74.0723 6.69922C73.8118 6.86849 73.61 7.10286 73.4668 7.40234C73.3236 7.69531 73.2227 8.0306 73.1641 8.4082C73.112 8.7793 73.0859 9.16992 73.0859 9.58008V9.86328C73.0859 10.2734 73.112 10.6673 73.1641 11.0449C73.2161 11.4225 73.3138 11.7578 73.457 12.0508C73.6068 12.3438 73.8118 12.5749 74.0723 12.7441C74.3327 12.9134 74.6712 12.998 75.0879 12.998ZM86.8555 12.6172V7.91016C86.8555 7.57161 86.8001 7.2819 86.6895 7.04102C86.5788 6.79362 86.4062 6.60156 86.1719 6.46484C85.944 6.32812 85.6478 6.25977 85.2832 6.25977C84.9707 6.25977 84.7005 6.3151 84.4727 6.42578C84.2448 6.52995 84.069 6.68294 83.9453 6.88477C83.8216 7.08008 83.7598 7.3112 83.7598 7.57812H80.9473C80.9473 7.12891 81.0514 6.70247 81.2598 6.29883C81.4681 5.89518 81.7708 5.54036 82.168 5.23438C82.5651 4.92188 83.0371 4.67773 83.584 4.50195C84.1374 4.32617 84.7559 4.23828 85.4395 4.23828C86.2598 4.23828 86.9889 4.375 87.627 4.64844C88.265 4.92188 88.7663 5.33203 89.1309 5.87891C89.502 6.42578 89.6875 7.10938 89.6875 7.92969V12.4512C89.6875 13.0306 89.7233 13.5059 89.7949 13.877C89.8665 14.2415 89.9707 14.5605 90.1074 14.834V15H87.2656C87.1289 14.7135 87.0247 14.3555 86.9531 13.9258C86.888 13.4896 86.8555 13.0534 86.8555 12.6172ZM87.2266 8.56445L87.2461 10.1562H85.6738C85.3027 10.1562 84.9805 10.1986 84.707 10.2832C84.4336 10.3678 84.209 10.4883 84.0332 10.6445C83.8574 10.7943 83.7272 10.9701 83.6426 11.1719C83.5645 11.3737 83.5254 11.5951 83.5254 11.8359C83.5254 12.0768 83.5807 12.2949 83.6914 12.4902C83.8021 12.679 83.9616 12.8288 84.1699 12.9395C84.3783 13.0436 84.6224 13.0957 84.9023 13.0957C85.3255 13.0957 85.6934 13.0111 86.0059 12.8418C86.3184 12.6725 86.5592 12.4642 86.7285 12.2168C86.9043 11.9694 86.9954 11.735 87.002 11.5137L87.7441 12.7051C87.64 12.972 87.4967 13.2487 87.3145 13.5352C87.1387 13.8216 86.9141 14.0918 86.6406 14.3457C86.3672 14.5931 86.0384 14.7982 85.6543 14.9609C85.2702 15.1172 84.8145 15.1953 84.2871 15.1953C83.6165 15.1953 83.0078 15.0618 82.4609 14.7949C81.9206 14.5215 81.4909 14.1471 81.1719 13.6719C80.8594 13.1901 80.7031 12.6432 80.7031 12.0312C80.7031 11.4779 80.8073 10.9863 81.0156 10.5566C81.224 10.127 81.5299 9.76562 81.9336 9.47266C82.3438 9.17318 82.8548 8.94857 83.4668 8.79883C84.0788 8.64258 84.7884 8.56445 85.5957 8.56445H87.2266ZM94.8242 0V15H92.002V0H94.8242ZM102.012 15.1953C101.191 15.1953 100.456 15.0651 99.8047 14.8047C99.1536 14.5378 98.6003 14.1699 98.1445 13.7012C97.6953 13.2324 97.3503 12.6888 97.1094 12.0703C96.8685 11.4453 96.748 10.7812 96.748 10.0781V9.6875C96.748 8.88672 96.862 8.1543 97.0898 7.49023C97.3177 6.82617 97.6432 6.25 98.0664 5.76172C98.4961 5.27344 99.0169 4.89909 99.6289 4.63867C100.241 4.37174 100.931 4.23828 101.699 4.23828C102.448 4.23828 103.112 4.36198 103.691 4.60938C104.271 4.85677 104.756 5.20833 105.146 5.66406C105.544 6.11979 105.843 6.66667 106.045 7.30469C106.247 7.9362 106.348 8.63932 106.348 9.41406V10.5859H97.9492V8.71094H103.584V8.49609C103.584 8.10547 103.512 7.75716 103.369 7.45117C103.232 7.13867 103.024 6.89128 102.744 6.70898C102.464 6.52669 102.106 6.43555 101.67 6.43555C101.299 6.43555 100.98 6.51693 100.713 6.67969C100.446 6.84245 100.228 7.07031 100.059 7.36328C99.8958 7.65625 99.7721 8.0013 99.6875 8.39844C99.6094 8.78906 99.5703 9.21875 99.5703 9.6875V10.0781C99.5703 10.5013 99.6289 10.8919 99.7461 11.25C99.8698 11.6081 100.042 11.9173 100.264 12.1777C100.492 12.4382 100.765 12.64 101.084 12.7832C101.41 12.9264 101.777 12.998 102.188 12.998C102.695 12.998 103.167 12.9004 103.604 12.7051C104.046 12.5033 104.427 12.2005 104.746 11.7969L106.113 13.2812C105.892 13.6003 105.589 13.9062 105.205 14.1992C104.827 14.4922 104.372 14.7331 103.838 14.9219C103.304 15.1042 102.695 15.1953 102.012 15.1953Z" fill="#CBFB5E"/>
</svg>
