<svg width="16" height="14" viewBox="0 0 16 14" fill="none" xmlns="http://www.w3.org/2000/svg">
<path fill-rule="evenodd" clip-rule="evenodd" d="M12 14.0001C12.5533 14.0001 13.0266 13.6667 13.2266 13.1867L15.24 8.48675C15.3 8.33341 15.3333 8.17341 15.3333 8.00008V6.66675C15.3333 5.93341 14.7333 5.33341 14 5.33341H9.79329L10.4266 2.28675L10.4466 2.07341C10.4466 1.80008 10.3333 1.54675 10.1533 1.36675L9.44663 0.666748L5.05329 5.06008C4.81329 5.30008 4.66663 5.63341 4.66663 6.00008V12.6667C4.66663 13.4001 5.26663 14.0001 5.99996 14.0001H12ZM8.89333 3.10669L8 6.66669H14V8.00002L12 12.6667H6V6.00002L8.89333 3.10669ZM3.33329 6V14H0.666626V6H3.33329Z" fill="#EEEEEE"/>
</svg>
