<svg width="21" height="16" viewBox="0 0 21 16" fill="none" xmlns="http://www.w3.org/2000/svg">
<path fill-rule="evenodd" clip-rule="evenodd" d="M17.8534 2.51185C18.7108 2.01501 19.3684 1.22957 19.68 0.293467C18.8772 0.752172 17.9881 1.08639 17.0429 1.26621C16.2854 0.48637 15.2059 0 14.0114 0C11.7177 0 9.85975 1.79632 9.85975 4.00984C9.85975 4.32387 9.89575 4.63079 9.96697 4.92426C6.51665 4.7564 3.4565 3.16009 1.40931 0.733106C1.05089 1.32602 0.846902 2.01501 0.846902 2.74961C0.846902 4.14143 1.58001 5.36951 2.69282 6.08803C2.01236 6.06747 1.37293 5.88653 0.812066 5.58559C0.812066 5.60316 0.812066 5.61923 0.812066 5.6368C0.812066 7.57892 2.24383 9.1999 4.14277 9.56814C3.79519 9.6601 3.42786 9.70982 3.0497 9.70982C2.78223 9.70982 2.52213 9.68477 2.26782 9.63804C2.79733 11.2314 4.3305 12.3906 6.14778 12.4228C4.72647 13.4991 2.93629 14.1387 0.990503 14.1387C0.65453 14.1387 0.323588 14.1212 0 14.0834C1.83702 15.221 4.01891 15.8853 6.36376 15.8853C14.001 15.8853 18.1786 9.77375 18.1786 4.47453C18.1786 4.30069 18.1739 4.12835 18.1666 3.95601C18.9783 3.39076 19.6816 2.68419 20.2378 1.8808C19.4938 2.19932 18.6926 2.4154 17.8534 2.51185Z" fill="white"/>
</svg>
